<?xml version="1.0" encoding="UTF-8"?>
<svg width="24px" height="22px" viewBox="0 0 24 22" version="1.1" xmlns="http://www.w3.org/2000/svg" xmlns:xlink="http://www.w3.org/1999/xlink">
    <title>24</title>
    <defs>
        <path d="M16.3995,0.5415 C16.1685,0.546 15.9075,0.582 15.612,0.6525 L15.612,0.6525 C13.848,1.086 9.0225,2.358 1.6515,3.891 L1.6515,3.891 C0.5955,4.1295 0.0165,4.968 0,5.907 L0,5.907 L0,5.988 C0.003,6.1545 0.0225,6.3225 0.06,6.492 L0.06,6.492 L3.675,20.4255 C3.9915,21.639 4.4265,22.824 7.6065,22.419 L7.6065,22.419 C15.033,21.6105 19.284,19.296 20.1225,18.777 L20.1225,18.777 C20.7915,18.3225 22.488,17.4345 22.5,15.654 L22.5,15.654 L22.5,15.621 C22.4985,15.2565 22.4265,14.8545 22.2615,14.412 L22.2615,14.412 L18.243,2.2425 C17.943,1.2285 17.514,0.5625 16.5015,0.5415 L16.5015,0.5415 L16.3995,0.5415 Z" id="path-1"></path>
        <linearGradient x1="50%" y1="-0.242936623%" x2="50%" y2="101.505139%" id="linearGradient-3">
            <stop stop-color="#ED7246" offset="0%"></stop>
            <stop stop-color="#E24926" offset="100%"></stop>
        </linearGradient>
    </defs>
    <g id="页面-1" stroke="none" stroke-width="1" fill="none" fill-rule="evenodd">
        <g id="lgoo备份" transform="translate(0.000000, -1.000000)">
            <rect id="矩形" x="0" y="0" width="24" height="24"></rect>
            <g id="编组-2" transform="translate(0.750000, 0.509550)">
                <g id="编组">
                    <mask id="mask-2" fill="white">
                        <use xlink:href="#path-1"></use>
                    </mask>
                    <g id="Clip-2"></g>
                    <path d="M16.3995,0.5415 C16.1685,0.546 15.9075,0.582 15.612,0.6525 L15.612,0.6525 C13.848,1.086 9.0225,2.358 1.6515,3.891 L1.6515,3.891 C0.5955,4.1295 0.0165,4.968 0,5.907 L0,5.907 L0,5.988 C0.003,6.1545 0.0225,6.3225 0.06,6.492 L0.06,6.492 L3.675,20.4255 C3.9915,21.639 4.4265,22.824 7.6065,22.419 L7.6065,22.419 C15.033,21.6105 19.284,19.296 20.1225,18.777 L20.1225,18.777 C20.7915,18.3225 22.488,17.4345 22.5,15.654 L22.5,15.654 L22.5,15.621 C22.4985,15.2565 22.4265,14.8545 22.2615,14.412 L22.2615,14.412 L18.243,2.2425 C17.943,1.2285 17.514,0.5625 16.5015,0.5415 L16.5015,0.5415 L16.3995,0.5415 Z" id="Fill-1" fill="url(#linearGradient-3)" mask="url(#mask-2)"></path>
                </g>
                <g id="编组" transform="translate(1.500000, 3.000000)">
                    <path d="M15.9624,4.12785 L14.9799,1.67085 C14.9799,1.67085 9.5169,1.43985 5.2389,3.20235 C0.9309,4.93785 0.9609,7.71285 1.4229,8.83935 C1.9434,10.08285 3.0699,11.38335 9.5454,10.60335 C12.5799,10.16985 12.8409,11.12385 12.8409,11.12385 C12.8409,11.12385 13.5339,12.16335 9.4584,13.37835 C6.8289,14.09985 3.2724,13.63785 3.2724,13.63785 L4.3134,16.18185 C4.3134,16.18185 8.9664,16.73085 13.2444,15.19785 C13.2444,15.19785 19.2579,13.37835 18.1299,9.56235 C17.2344,6.96135 13.6209,6.90285 10.8174,7.16235 C10.8174,7.16235 6.7119,7.71285 6.6549,6.35385 C6.6549,4.76385 11.2224,3.83835 15.9624,4.12785" id="Fill-3" fill="#D74328"></path>
                    <path d="M15.9624,3.63645 L14.9799,1.17945 C14.9799,1.17945 9.5169,0.94845 5.2389,2.71095 C0.9309,4.47495 0.9609,7.22145 1.4229,8.34795 C1.9434,9.59145 3.0699,10.89195 9.5454,10.11045 C12.5799,9.70695 12.8409,10.66095 12.8409,10.66095 C12.8409,10.66095 13.5339,11.70195 9.4584,12.91545 C6.8289,13.63845 3.2724,13.17495 3.2724,13.17495 L4.3134,15.72045 C4.3134,15.72045 8.9664,16.26795 13.2444,14.73645 C13.2444,14.73645 19.2579,12.91545 18.1299,9.09945 C17.2629,6.49845 13.6209,6.46995 10.8459,6.70095 C10.8459,6.70095 6.7419,7.24995 6.6834,5.89095 C6.6549,4.27245 11.2509,3.34695 15.9624,3.63645" id="Fill-5" fill="#FFFFFF"></path>
                </g>
            </g>
        </g>
    </g>
</svg>