<?xml version="1.0" encoding="utf-8"?>
<!-- Generator: Adobe Illustrator 23.0.1, SVG Export Plug-In . SVG Version: 6.00 Build 0)  -->
<svg version="1.1" id="组_5" xmlns="http://www.w3.org/2000/svg" xmlns:xlink="http://www.w3.org/1999/xlink" x="0px" y="0px"
	 viewBox="0 0 18 18" style="enable-background:new 0 0 18 18;" xml:space="preserve">
<path id="矩形_21" d="M3,6h4v1H3V6z M5,3h1v12H5V3z M4,14h2v1H4V14z M3,11h1v1H3V11z M4,10h1v1H4V10z M6,9h1v1H6V9z M8,3h1v1H8V3z
	 M9,4h1v1H9V4z M12,4h1v1h-1V4z M13,3h1v1h-1V3z M8,6h6v1H8V6z M7,10h8v1H7V10z M9,7h1v7H9V7z M8,14h1v1H8V14z M12,7h1v8h-1V7z"/>
<path d="M1,1v16h16V1H1z M16,16H2V2h14V16z"/>
</svg>
