<?xml version="1.0" encoding="UTF-8"?>
<svg width="120px" height="118px" viewBox="0 0 120 118" version="1.1" xmlns="http://www.w3.org/2000/svg" xmlns:xlink="http://www.w3.org/1999/xlink">
    <title>128</title>
    <defs>
        <path d="M87.464,2.888 C86.232,2.912 84.84,3.104 83.264,3.48 L83.264,3.48 C73.856,5.792 48.12,12.576 8.808,20.752 L8.808,20.752 C3.176,22.024 0.088,26.496 0,31.504 L0,31.504 L0,31.936 C0.016,32.824 0.12,33.72 0.32,34.624 L0.32,34.624 L19.6,108.936 C21.288,115.408 23.608,121.728 40.568,119.568 L40.568,119.568 C80.176,115.256 102.848,102.912 107.32,100.144 L107.32,100.144 C110.888,97.72 119.936,92.984 120,83.488 L120,83.488 L120,83.312 C119.992,81.368 119.608,79.224 118.728,76.864 L118.728,76.864 L97.296,11.96 C95.696,6.552 93.408,3 88.008,2.888 L88.008,2.888 L87.464,2.888 Z" id="path-1"></path>
        <linearGradient x1="50%" y1="-0.242936623%" x2="50%" y2="101.505139%" id="linearGradient-3">
            <stop stop-color="#ED7246" offset="0%"></stop>
            <stop stop-color="#E24926" offset="100%"></stop>
        </linearGradient>
    </defs>
    <g id="页面-1" stroke="none" stroke-width="1" fill="none" fill-rule="evenodd">
        <g id="lgoo备份-6" transform="translate(-4.000000, -5.000000)">
            <rect id="矩形" x="0" y="0" width="128" height="128"></rect>
            <g id="编组-2" transform="translate(4.000000, 2.717600)">
                <g id="编组">
                    <mask id="mask-2" fill="white">
                        <use xlink:href="#path-1"></use>
                    </mask>
                    <g id="Clip-2"></g>
                    <path d="M87.464,2.888 C86.232,2.912 84.84,3.104 83.264,3.48 L83.264,3.48 C73.856,5.792 48.12,12.576 8.808,20.752 L8.808,20.752 C3.176,22.024 0.088,26.496 0,31.504 L0,31.504 L0,31.936 C0.016,32.824 0.12,33.72 0.32,34.624 L0.32,34.624 L19.6,108.936 C21.288,115.408 23.608,121.728 40.568,119.568 L40.568,119.568 C80.176,115.256 102.848,102.912 107.32,100.144 L107.32,100.144 C110.888,97.72 119.936,92.984 120,83.488 L120,83.488 L120,83.312 C119.992,81.368 119.608,79.224 118.728,76.864 L118.728,76.864 L97.296,11.96 C95.696,6.552 93.408,3 88.008,2.888 L88.008,2.888 L87.464,2.888 Z" id="Fill-1" fill="url(#linearGradient-3)" mask="url(#mask-2)"></path>
                </g>
                <g id="编组" transform="translate(8.000000, 16.000000)">
                    <path d="M85.1328,22.0152 L79.8928,8.9112 C79.8928,8.9112 50.7568,7.6792 27.9408,17.0792 C4.9648,26.3352 5.1248,41.1352 7.5888,47.1432 C10.3648,53.7752 16.3728,60.7112 50.9088,56.5512 C67.0928,54.2392 68.4848,59.3272 68.4848,59.3272 C68.4848,59.3272 72.1808,64.8712 50.4448,71.3512 C36.4208,75.1992 17.4528,72.7352 17.4528,72.7352 L23.0048,86.3032 C23.0048,86.3032 47.8208,89.2312 70.6368,81.0552 C70.6368,81.0552 102.7088,71.3512 96.6928,50.9992 C91.9168,37.1272 72.6448,36.8152 57.6928,38.1992 C57.6928,38.1992 35.7968,41.1352 35.4928,33.8872 C35.4928,25.4072 59.8528,20.4712 85.1328,22.0152" id="Fill-3" fill="#D74328"></path>
                    <path d="M85.1328,19.3944 L79.8928,6.2904 C79.8928,6.2904 50.7568,5.0584 27.9408,14.4584 C4.9648,23.8664 5.1248,38.5144 7.5888,44.5224 C10.3648,51.1544 16.3728,58.0904 50.9088,53.9224 C67.0928,51.7704 68.4848,56.8584 68.4848,56.8584 C68.4848,56.8584 72.1808,62.4104 50.4448,68.8824 C36.4208,72.7384 17.4528,70.2664 17.4528,70.2664 L23.0048,83.8424 C23.0048,83.8424 47.8208,86.7624 70.6368,78.5944 C70.6368,78.5944 102.7088,68.8824 96.6928,48.5304 C92.0688,34.6584 72.6448,34.5064 57.8448,35.7384 C57.8448,35.7384 35.9568,38.6664 35.6448,31.4184 C35.4928,22.7864 60.0048,17.8504 85.1328,19.3944" id="Fill-5" fill="#FFFFFF"></path>
                </g>
            </g>
        </g>
    </g>
</svg>