<?xml version="1.0" encoding="UTF-8"?>
<svg width="30px" height="30px" viewBox="0 0 30 30" version="1.1" xmlns="http://www.w3.org/2000/svg" xmlns:xlink="http://www.w3.org/1999/xlink">
    <title>32</title>
    <defs>
        <path d="M21.866,0.722 C21.558,0.728 21.21,0.776 20.816,0.87 L20.816,0.87 C18.464,1.448 12.03,3.144 2.202,5.188 L2.202,5.188 C0.794,5.506 0.022,6.624 0,7.876 L0,7.876 L0,7.984 C0.004,8.206 0.03,8.43 0.08,8.656 L0.08,8.656 L4.9,27.234 C5.322,28.852 5.902,30.432 10.142,29.892 L10.142,29.892 C20.044,28.814 25.712,25.728 26.83,25.036 L26.83,25.036 C27.722,24.43 29.984,23.246 30,20.872 L30,20.872 L30,20.828 C29.998,20.342 29.902,19.806 29.682,19.216 L29.682,19.216 L24.324,2.99 C23.924,1.638 23.352,0.75 22.002,0.722 L22.002,0.722 L21.866,0.722 Z" id="path-1"></path>
        <linearGradient x1="50%" y1="-0.242936623%" x2="50%" y2="101.505139%" id="linearGradient-3">
            <stop stop-color="#ED7246" offset="0%"></stop>
            <stop stop-color="#E24926" offset="100%"></stop>
        </linearGradient>
    </defs>
    <g id="页面-1" stroke="none" stroke-width="1" fill="none" fill-rule="evenodd">
        <g id="lgoo备份-2" transform="translate(-1.000000, -1.000000)">
            <rect id="矩形" x="0" y="0" width="32" height="32"></rect>
            <g id="编组-2" transform="translate(1.000000, 0.679400)">
                <g id="编组">
                    <mask id="mask-2" fill="white">
                        <use xlink:href="#path-1"></use>
                    </mask>
                    <g id="Clip-2"></g>
                    <path d="M21.866,0.722 C21.558,0.728 21.21,0.776 20.816,0.87 L20.816,0.87 C18.464,1.448 12.03,3.144 2.202,5.188 L2.202,5.188 C0.794,5.506 0.022,6.624 0,7.876 L0,7.876 L0,7.984 C0.004,8.206 0.03,8.43 0.08,8.656 L0.08,8.656 L4.9,27.234 C5.322,28.852 5.902,30.432 10.142,29.892 L10.142,29.892 C20.044,28.814 25.712,25.728 26.83,25.036 L26.83,25.036 C27.722,24.43 29.984,23.246 30,20.872 L30,20.872 L30,20.828 C29.998,20.342 29.902,19.806 29.682,19.216 L29.682,19.216 L24.324,2.99 C23.924,1.638 23.352,0.75 22.002,0.722 L22.002,0.722 L21.866,0.722 Z" id="Fill-1" fill="url(#linearGradient-3)" mask="url(#mask-2)"></path>
                </g>
                <g id="编组" transform="translate(2.000000, 4.000000)">
                    <path d="M21.2832,5.5038 L19.9732,2.2278 C19.9732,2.2278 12.6892,1.9198 6.9852,4.2698 C1.2412,6.5838 1.2812,10.2838 1.8972,11.7858 C2.5912,13.4438 4.0932,15.1778 12.7272,14.1378 C16.7732,13.5598 17.1212,14.8318 17.1212,14.8318 C17.1212,14.8318 18.0452,16.2178 12.6112,17.8378 C9.1052,18.7998 4.3632,18.1838 4.3632,18.1838 L5.7512,21.5758 C5.7512,21.5758 11.9552,22.3078 17.6592,20.2638 C17.6592,20.2638 25.6772,17.8378 24.1732,12.7498 C22.9792,9.2818 18.1612,9.2038 14.4232,9.5498 C14.4232,9.5498 8.9492,10.2838 8.8732,8.4718 C8.8732,6.3518 14.9632,5.1178 21.2832,5.5038" id="Fill-3" fill="#D74328"></path>
                    <path d="M21.2832,4.8486 L19.9732,1.5726 C19.9732,1.5726 12.6892,1.2646 6.9852,3.6146 C1.2412,5.9666 1.2812,9.6286 1.8972,11.1306 C2.5912,12.7886 4.0932,14.5226 12.7272,13.4806 C16.7732,12.9426 17.1212,14.2146 17.1212,14.2146 C17.1212,14.2146 18.0452,15.6026 12.6112,17.2206 C9.1052,18.1846 4.3632,17.5666 4.3632,17.5666 L5.7512,20.9606 C5.7512,20.9606 11.9552,21.6906 17.6592,19.6486 C17.6592,19.6486 25.6772,17.2206 24.1732,12.1326 C23.0172,8.6646 18.1612,8.6266 14.4612,8.9346 C14.4612,8.9346 8.9892,9.6666 8.9112,7.8546 C8.8732,5.6966 15.0012,4.4626 21.2832,4.8486" id="Fill-5" fill="#FFFFFF"></path>
                </g>
            </g>
        </g>
    </g>
</svg>