<?xml version="1.0" encoding="UTF-8"?>
<svg width="90px" height="89px" viewBox="0 0 90 89" version="1.1" xmlns="http://www.w3.org/2000/svg" xmlns:xlink="http://www.w3.org/1999/xlink">
    <title>96</title>
    <defs>
        <path d="M65.598,2.166 C64.674,2.184 63.63,2.328 62.448,2.61 L62.448,2.61 C55.392,4.344 36.09,9.432 6.606,15.564 L6.606,15.564 C2.382,16.518 0.066,19.872 0,23.628 L0,23.628 L0,23.952 C0.012,24.618 0.09,25.29 0.24,25.968 L0.24,25.968 L14.7,81.702 C15.966,86.556 17.706,91.296 30.426,89.676 L30.426,89.676 C60.132,86.442 77.136,77.184 80.49,75.108 L80.49,75.108 C83.166,73.29 89.952,69.738 90,62.616 L90,62.616 L90,62.484 C89.994,61.026 89.706,59.418 89.046,57.648 L89.046,57.648 L72.972,8.97 C71.772,4.914 70.056,2.25 66.006,2.166 L66.006,2.166 L65.598,2.166 Z" id="path-1"></path>
        <linearGradient x1="50%" y1="-0.242936623%" x2="50%" y2="101.505139%" id="linearGradient-3">
            <stop stop-color="#ED7246" offset="0%"></stop>
            <stop stop-color="#E24926" offset="100%"></stop>
        </linearGradient>
    </defs>
    <g id="页面-1" stroke="none" stroke-width="1" fill="none" fill-rule="evenodd">
        <g id="lgoo备份-5" transform="translate(-3.000000, -4.000000)">
            <rect id="矩形" x="0" y="0" width="96" height="96"></rect>
            <g id="编组-2" transform="translate(3.000000, 2.038200)">
                <g id="编组">
                    <mask id="mask-2" fill="white">
                        <use xlink:href="#path-1"></use>
                    </mask>
                    <g id="Clip-2"></g>
                    <path d="M65.598,2.166 C64.674,2.184 63.63,2.328 62.448,2.61 L62.448,2.61 C55.392,4.344 36.09,9.432 6.606,15.564 L6.606,15.564 C2.382,16.518 0.066,19.872 0,23.628 L0,23.628 L0,23.952 C0.012,24.618 0.09,25.29 0.24,25.968 L0.24,25.968 L14.7,81.702 C15.966,86.556 17.706,91.296 30.426,89.676 L30.426,89.676 C60.132,86.442 77.136,77.184 80.49,75.108 L80.49,75.108 C83.166,73.29 89.952,69.738 90,62.616 L90,62.616 L90,62.484 C89.994,61.026 89.706,59.418 89.046,57.648 L89.046,57.648 L72.972,8.97 C71.772,4.914 70.056,2.25 66.006,2.166 L66.006,2.166 L65.598,2.166 Z" id="Fill-1" fill="url(#linearGradient-3)" mask="url(#mask-2)"></path>
                </g>
                <g id="编组" transform="translate(6.000000, 12.000000)">
                    <path d="M63.8496,16.5114 L59.9196,6.6834 C59.9196,6.6834 38.0676,5.7594 20.9556,12.8094 C3.7236,19.7514 3.8436,30.8514 5.6916,35.3574 C7.7736,40.3314 12.2796,45.5334 38.1816,42.4134 C50.3196,40.6794 51.3636,44.4954 51.3636,44.4954 C51.3636,44.4954 54.1356,48.6534 37.8336,53.5134 C27.3156,56.3994 13.0896,54.5514 13.0896,54.5514 L17.2536,64.7274 C17.2536,64.7274 35.8656,66.9234 52.9776,60.7914 C52.9776,60.7914 77.0316,53.5134 72.5196,38.2494 C68.9376,27.8454 54.4836,27.6114 43.2696,28.6494 C43.2696,28.6494 26.8476,30.8514 26.6196,25.4154 C26.6196,19.0554 44.8896,15.3534 63.8496,16.5114" id="Fill-3" fill="#D74328"></path>
                    <path d="M63.8496,14.5458 L59.9196,4.7178 C59.9196,4.7178 38.0676,3.7938 20.9556,10.8438 C3.7236,17.8998 3.8436,28.8858 5.6916,33.3918 C7.7736,38.3658 12.2796,43.5678 38.1816,40.4418 C50.3196,38.8278 51.3636,42.6438 51.3636,42.6438 C51.3636,42.6438 54.1356,46.8078 37.8336,51.6618 C27.3156,54.5538 13.0896,52.6998 13.0896,52.6998 L17.2536,62.8818 C17.2536,62.8818 35.8656,65.0718 52.9776,58.9458 C52.9776,58.9458 77.0316,51.6618 72.5196,36.3978 C69.0516,25.9938 54.4836,25.8798 43.3836,26.8038 C43.3836,26.8038 26.9676,28.9998 26.7336,23.5638 C26.6196,17.0898 45.0036,13.3878 63.8496,14.5458" id="Fill-5" fill="#FFFFFF"></path>
                </g>
            </g>
        </g>
    </g>
</svg>