<?xml version="1.0" encoding="UTF-8"?>
<svg width="30px" height="30px" viewBox="0 0 30 30" version="1.1" xmlns="http://www.w3.org/2000/svg" xmlns:xlink="http://www.w3.org/1999/xlink">
    <title>checkbox_p</title>
    <g id="控件" stroke="none" stroke-width="1" fill="none" fill-rule="evenodd">
        <g id="列表+复选框已勾选" transform="translate(-475.000000, -25.000000)" fill="#FF7846">
            <path d="M490,25 C498.284271,25 505,31.7157288 505,40 C505,48.2842712 498.284271,55 490,55 C481.715729,55 475,48.2842712 475,40 C475,31.7157288 481.715729,25 490,25 Z M498.680656,35.2504223 C498.191991,34.7627774 497.400535,34.7636047 496.91289,35.25227 L496.91289,35.25227 L488.946,43.235 L484.40763,38.8026668 L484.305073,38.7127413 C483.809635,38.3236629 483.09022,38.3624789 482.639985,38.8234039 C482.157589,39.3172521 482.166874,40.1086538 482.660722,40.5910492 L482.660722,40.5910492 L488.083801,45.8883625 L488.18557,45.9776643 C488.677144,46.3643158 489.390362,46.3297757 489.842062,45.8771304 L489.842062,45.8771304 L498.682504,37.0181882 L498.77352,36.9165977 C499.16787,36.4253457 499.136744,35.7055574 498.680656,35.2504223 Z" id="checkbox_p"></path>
        </g>
    </g>
</svg>