<?xml version="1.0" encoding="UTF-8"?>
<svg width="60px" height="60px" viewBox="0 0 60 60" version="1.1" xmlns="http://www.w3.org/2000/svg" xmlns:xlink="http://www.w3.org/1999/xlink">
    <title>64</title>
    <defs>
        <path d="M43.732,1.444 C43.116,1.456 42.42,1.552 41.632,1.74 L41.632,1.74 C36.928,2.896 24.06,6.288 4.404,10.376 L4.404,10.376 C1.588,11.012 0.044,13.248 0,15.752 L0,15.752 L0,15.968 C0.008,16.412 0.06,16.86 0.16,17.312 L0.16,17.312 L9.8,54.468 C10.644,57.704 11.804,60.864 20.284,59.784 L20.284,59.784 C40.088,57.628 51.424,51.456 53.66,50.072 L53.66,50.072 C55.444,48.86 59.968,46.492 60,41.744 L60,41.744 L60,41.656 C59.996,40.684 59.804,39.612 59.364,38.432 L59.364,38.432 L48.648,5.98 C47.848,3.276 46.704,1.5 44.004,1.444 L44.004,1.444 L43.732,1.444 Z" id="path-1"></path>
        <linearGradient x1="50%" y1="-0.242936623%" x2="50%" y2="101.505139%" id="linearGradient-3">
            <stop stop-color="#ED7246" offset="0%"></stop>
            <stop stop-color="#E24926" offset="100%"></stop>
        </linearGradient>
    </defs>
    <g id="页面-1" stroke="none" stroke-width="1" fill="none" fill-rule="evenodd">
        <g id="lgoo备份-4" transform="translate(-2.000000, -2.000000)">
            <rect id="矩形" x="0" y="0" width="64" height="64"></rect>
            <g id="编组-2" transform="translate(2.000000, 1.358800)">
                <g id="编组">
                    <mask id="mask-2" fill="white">
                        <use xlink:href="#path-1"></use>
                    </mask>
                    <g id="Clip-2"></g>
                    <path d="M43.732,1.444 C43.116,1.456 42.42,1.552 41.632,1.74 L41.632,1.74 C36.928,2.896 24.06,6.288 4.404,10.376 L4.404,10.376 C1.588,11.012 0.044,13.248 0,15.752 L0,15.752 L0,15.968 C0.008,16.412 0.06,16.86 0.16,17.312 L0.16,17.312 L9.8,54.468 C10.644,57.704 11.804,60.864 20.284,59.784 L20.284,59.784 C40.088,57.628 51.424,51.456 53.66,50.072 L53.66,50.072 C55.444,48.86 59.968,46.492 60,41.744 L60,41.744 L60,41.656 C59.996,40.684 59.804,39.612 59.364,38.432 L59.364,38.432 L48.648,5.98 C47.848,3.276 46.704,1.5 44.004,1.444 L44.004,1.444 L43.732,1.444 Z" id="Fill-1" fill="url(#linearGradient-3)" mask="url(#mask-2)"></path>
                </g>
                <g id="编组" transform="translate(4.000000, 8.000000)">
                    <path d="M42.5664,11.0076 L39.9464,4.4556 C39.9464,4.4556 25.3784,3.8396 13.9704,8.5396 C2.4824,13.1676 2.5624,20.5676 3.7944,23.5716 C5.1824,26.8876 8.1864,30.3556 25.4544,28.2756 C33.5464,27.1196 34.2424,29.6636 34.2424,29.6636 C34.2424,29.6636 36.0904,32.4356 25.2224,35.6756 C18.2104,37.5996 8.7264,36.3676 8.7264,36.3676 L11.5024,43.1516 C11.5024,43.1516 23.9104,44.6156 35.3184,40.5276 C35.3184,40.5276 51.3544,35.6756 48.3464,25.4996 C45.9584,18.5636 36.3224,18.4076 28.8464,19.0996 C28.8464,19.0996 17.8984,20.5676 17.7464,16.9436 C17.7464,12.7036 29.9264,10.2356 42.5664,11.0076" id="Fill-3" fill="#D74328"></path>
                    <path d="M42.5664,9.6972 L39.9464,3.1452 C39.9464,3.1452 25.3784,2.5292 13.9704,7.2292 C2.4824,11.9332 2.5624,19.2572 3.7944,22.2612 C5.1824,25.5772 8.1864,29.0452 25.4544,26.9612 C33.5464,25.8852 34.2424,28.4292 34.2424,28.4292 C34.2424,28.4292 36.0904,31.2052 25.2224,34.4412 C18.2104,36.3692 8.7264,35.1332 8.7264,35.1332 L11.5024,41.9212 C11.5024,41.9212 23.9104,43.3812 35.3184,39.2972 C35.3184,39.2972 51.3544,34.4412 48.3464,24.2652 C46.0344,17.3292 36.3224,17.2532 28.9224,17.8692 C28.9224,17.8692 17.9784,19.3332 17.8224,15.7092 C17.7464,11.3932 30.0024,8.9252 42.5664,9.6972" id="Fill-5" fill="#FFFFFF"></path>
                </g>
            </g>
        </g>
    </g>
</svg>