<?xml version="1.0" encoding="UTF-8"?>
<svg width="16px" height="16px" viewBox="0 0 16 16" version="1.1" xmlns="http://www.w3.org/2000/svg" xmlns:xlink="http://www.w3.org/1999/xlink">
    <title>16</title>
    <defs>
        <path d="M10.933,0.361 C10.779,0.364 10.605,0.388 10.408,0.435 L10.408,0.435 C9.232,0.724 6.015,1.572 1.101,2.594 L1.101,2.594 C0.397,2.753 0.011,3.312 0,3.938 L0,3.938 L0,3.992 C0.002,4.103 0.015,4.215 0.04,4.328 L0.04,4.328 L2.45,13.617 C2.661,14.426 2.951,15.216 5.071,14.946 L5.071,14.946 C10.022,14.407 12.856,12.864 13.415,12.518 L13.415,12.518 C13.861,12.215 14.992,11.623 15,10.436 L15,10.436 L15,10.414 C14.999,10.171 14.951,9.903 14.841,9.608 L14.841,9.608 L12.162,1.495 C11.962,0.819 11.676,0.375 11.001,0.361 L11.001,0.361 L10.933,0.361 Z" id="path-1"></path>
        <linearGradient x1="50%" y1="-0.242936623%" x2="50%" y2="101.505139%" id="linearGradient-3">
            <stop stop-color="#ED7246" offset="0%"></stop>
            <stop stop-color="#E24926" offset="100%"></stop>
        </linearGradient>
    </defs>
    <g id="页面-1" stroke="none" stroke-width="1" fill="none" fill-rule="evenodd">
        <g id="编组">
            <rect id="矩形" x="0" y="0" width="16" height="16"></rect>
            <g id="编组-2" transform="translate(0.500000, 0.339700)">
                <g id="编组">
                    <mask id="mask-2" fill="white">
                        <use xlink:href="#path-1"></use>
                    </mask>
                    <g id="Clip-2"></g>
                    <path d="M10.933,0.361 C10.779,0.364 10.605,0.388 10.408,0.435 L10.408,0.435 C9.232,0.724 6.015,1.572 1.101,2.594 L1.101,2.594 C0.397,2.753 0.011,3.312 0,3.938 L0,3.938 L0,3.992 C0.002,4.103 0.015,4.215 0.04,4.328 L0.04,4.328 L2.45,13.617 C2.661,14.426 2.951,15.216 5.071,14.946 L5.071,14.946 C10.022,14.407 12.856,12.864 13.415,12.518 L13.415,12.518 C13.861,12.215 14.992,11.623 15,10.436 L15,10.436 L15,10.414 C14.999,10.171 14.951,9.903 14.841,9.608 L14.841,9.608 L12.162,1.495 C11.962,0.819 11.676,0.375 11.001,0.361 L11.001,0.361 L10.933,0.361 Z" id="Fill-1" fill="url(#linearGradient-3)" mask="url(#mask-2)"></path>
                </g>
                <g id="编组" transform="translate(1.000000, 2.000000)">
                    <path d="M10.6416,2.7519 L9.9866,1.1139 C9.9866,1.1139 6.3446,0.9599 3.4926,2.1349 C0.6206,3.2919 0.6406,5.1419 0.9486,5.8929 C1.2956,6.7219 2.0466,7.5889 6.3636,7.0689 C8.3866,6.7799 8.5606,7.4159 8.5606,7.4159 C8.5606,7.4159 9.0226,8.1089 6.3056,8.9189 C4.5526,9.3999 2.1816,9.0919 2.1816,9.0919 L2.8756,10.7879 C2.8756,10.7879 5.9776,11.1539 8.8296,10.1319 C8.8296,10.1319 12.8386,8.9189 12.0866,6.3749 C11.4896,4.6409 9.0806,4.6019 7.2116,4.7749 C7.2116,4.7749 4.4746,5.1419 4.4366,4.2359 C4.4366,3.1759 7.4816,2.5589 10.6416,2.7519" id="Fill-3" fill="#D74328"></path>
                    <path d="M10.6416,2.4243 L9.9866,0.7863 C9.9866,0.7863 6.3446,0.6323 3.4926,1.8073 C0.6206,2.9833 0.6406,4.8143 0.9486,5.5653 C1.2956,6.3943 2.0466,7.2613 6.3636,6.7403 C8.3866,6.4713 8.5606,7.1073 8.5606,7.1073 C8.5606,7.1073 9.0226,7.8013 6.3056,8.6103 C4.5526,9.0923 2.1816,8.7833 2.1816,8.7833 L2.8756,10.4803 C2.8756,10.4803 5.9776,10.8453 8.8296,9.8243 C8.8296,9.8243 12.8386,8.6103 12.0866,6.0663 C11.5086,4.3323 9.0806,4.3133 7.2306,4.4673 C7.2306,4.4673 4.4946,4.8333 4.4556,3.9273 C4.4366,2.8483 7.5006,2.2313 10.6416,2.4243" id="Fill-5" fill="#FFFFFF"></path>
                </g>
            </g>
        </g>
    </g>
</svg>