<?xml version="1.0" encoding="UTF-8"?>
<svg width="46px" height="45px" viewBox="0 0 46 45" version="1.1" xmlns="http://www.w3.org/2000/svg" xmlns:xlink="http://www.w3.org/1999/xlink">
    <title>48</title>
    <defs>
        <path d="M32.799,1.083 C32.337,1.092 31.815,1.164 31.224,1.305 L31.224,1.305 C27.696,2.172 18.045,4.716 3.303,7.782 L3.303,7.782 C1.191,8.259 0.033,9.936 0,11.814 L0,11.814 L0,11.976 C0.006,12.309 0.045,12.645 0.12,12.984 L0.12,12.984 L7.35,40.851 C7.983,43.278 8.853,45.648 15.213,44.838 L15.213,44.838 C30.066,43.221 38.568,38.592 40.245,37.554 L40.245,37.554 C41.583,36.645 44.976,34.869 45,31.308 L45,31.308 L45,31.242 C44.997,30.513 44.853,29.709 44.523,28.824 L44.523,28.824 L36.486,4.485 C35.886,2.457 35.028,1.125 33.003,1.083 L33.003,1.083 L32.799,1.083 Z" id="path-1"></path>
        <linearGradient x1="50%" y1="-0.242936623%" x2="50%" y2="101.505139%" id="linearGradient-3">
            <stop stop-color="#ED7246" offset="0%"></stop>
            <stop stop-color="#E24926" offset="100%"></stop>
        </linearGradient>
    </defs>
    <g id="页面-1" stroke="none" stroke-width="1" fill="none" fill-rule="evenodd">
        <g id="lgoo备份-3" transform="translate(-1.000000, -2.000000)">
            <rect id="矩形" x="0" y="0" width="48" height="48"></rect>
            <g id="编组-2" transform="translate(1.500000, 1.019100)">
                <g id="编组">
                    <mask id="mask-2" fill="white">
                        <use xlink:href="#path-1"></use>
                    </mask>
                    <g id="Clip-2"></g>
                    <path d="M32.799,1.083 C32.337,1.092 31.815,1.164 31.224,1.305 L31.224,1.305 C27.696,2.172 18.045,4.716 3.303,7.782 L3.303,7.782 C1.191,8.259 0.033,9.936 0,11.814 L0,11.814 L0,11.976 C0.006,12.309 0.045,12.645 0.12,12.984 L0.12,12.984 L7.35,40.851 C7.983,43.278 8.853,45.648 15.213,44.838 L15.213,44.838 C30.066,43.221 38.568,38.592 40.245,37.554 L40.245,37.554 C41.583,36.645 44.976,34.869 45,31.308 L45,31.308 L45,31.242 C44.997,30.513 44.853,29.709 44.523,28.824 L44.523,28.824 L36.486,4.485 C35.886,2.457 35.028,1.125 33.003,1.083 L33.003,1.083 L32.799,1.083 Z" id="Fill-1" fill="url(#linearGradient-3)" mask="url(#mask-2)"></path>
                </g>
                <g id="编组" transform="translate(3.000000, 6.000000)">
                    <path d="M31.9248,8.2557 L29.9598,3.3417 C29.9598,3.3417 19.0338,2.8797 10.4778,6.4047 C1.8618,9.8757 1.9218,15.4257 2.8458,17.6787 C3.8868,20.1657 6.1398,22.7667 19.0908,21.2067 C25.1598,20.3397 25.6818,22.2477 25.6818,22.2477 C25.6818,22.2477 27.0678,24.3267 18.9168,26.7567 C13.6578,28.1997 6.5448,27.2757 6.5448,27.2757 L8.6268,32.3637 C8.6268,32.3637 17.9328,33.4617 26.4888,30.3957 C26.4888,30.3957 38.5158,26.7567 36.2598,19.1247 C34.4688,13.9227 27.2418,13.8057 21.6348,14.3247 C21.6348,14.3247 13.4238,15.4257 13.3098,12.7077 C13.3098,9.5277 22.4448,7.6767 31.9248,8.2557" id="Fill-3" fill="#D74328"></path>
                    <path d="M31.9248,7.2729 L29.9598,2.3589 C29.9598,2.3589 19.0338,1.8969 10.4778,5.4219 C1.8618,8.9499 1.9218,14.4429 2.8458,16.6959 C3.8868,19.1829 6.1398,21.7839 19.0908,20.2209 C25.1598,19.4139 25.6818,21.3219 25.6818,21.3219 C25.6818,21.3219 27.0678,23.4039 18.9168,25.8309 C13.6578,27.2769 6.5448,26.3499 6.5448,26.3499 L8.6268,31.4409 C8.6268,31.4409 17.9328,32.5359 26.4888,29.4729 C26.4888,29.4729 38.5158,25.8309 36.2598,18.1989 C34.5258,12.9969 27.2418,12.9399 21.6918,13.4019 C21.6918,13.4019 13.4838,14.4999 13.3668,11.7819 C13.3098,8.5449 22.5018,6.6939 31.9248,7.2729" id="Fill-5" fill="#FFFFFF"></path>
                </g>
            </g>
        </g>
    </g>
</svg>