<?xml version="1.0" encoding="UTF-8"?>
<svg width="128px" height="128px" viewBox="0 0 128 128" version="1.1" xmlns="http://www.w3.org/2000/svg" xmlns:xlink="http://www.w3.org/1999/xlink">
    <title>sogou128x128</title>
    <defs>
        <linearGradient x1="49.9898588%" y1="-0.238033426%" x2="49.9898588%" y2="101.504804%" id="linearGradient-1">
            <stop stop-color="#ED7346" offset="0%"></stop>
            <stop stop-color="#E24926" offset="100%"></stop>
        </linearGradient>
    </defs>
    <g id="页面-1" stroke="none" stroke-width="1" fill="none" fill-rule="evenodd">
        <g id="sogou128x128" fill-rule="nonzero">
            <path d="M126.523077,78.7692308 C132.102564,93.7025641 118.974359,100.430769 114.379487,103.548718 C109.620513,106.502564 85.4974359,119.630769 43.3230769,124.225641 C25.2717949,126.523077 22.8102564,119.794872 21.0051282,112.902564 L0.492307692,33.8051282 C-0.984615385,27.2410256 2.2974359,20.6769231 9.51794872,19.0358974 C51.3641026,10.3384615 78.7692308,3.11794872 88.7794872,0.656410256 C98.2974359,-1.64102564 101.579487,2.46153846 103.712821,9.68205128 L126.523077,78.7692308 Z" id="路径" fill="url(#linearGradient-1)"></path>
            <path d="M99.2820513,37.4153846 L93.7025641,23.4666667 C93.7025641,23.4666667 62.6871795,22.1538462 38.4,32.1641026 C13.9487179,42.0102564 14.1128205,57.7641026 16.7384615,64.1641026 C19.6923077,71.2205128 26.0923077,78.6051282 62.8512821,74.174359 C80.0820513,71.7128205 81.5589744,77.1282051 81.5589744,77.1282051 C81.5589744,77.1282051 85.4974359,83.0358974 62.3589744,89.9282051 C47.425641,94.0307692 27.2410256,91.4051282 27.2410256,91.4051282 L33.1487179,105.846154 C33.1487179,105.846154 59.5692308,108.964103 83.8564103,100.266667 C83.8564103,100.266667 117.989744,89.9282051 111.589744,68.2666667 C106.502564,53.4974359 85.9897436,53.1692308 70.0717949,54.6461538 C70.0717949,54.6461538 46.7692308,57.7641026 46.4410256,50.0512821 C46.4410256,41.025641 72.3692308,35.774359 99.2820513,37.4153846 Z" id="路径" fill="#D74328"></path>
            <path d="M99.2820513,34.625641 L93.7025641,20.6769231 C93.7025641,20.6769231 62.6871795,19.3641026 38.4,29.374359 C13.9487179,39.3846154 14.1128205,54.974359 16.7384615,61.374359 C19.6923077,68.4307692 26.0923077,75.8153846 62.8512821,71.3846154 C80.0820513,69.0871795 81.5589744,74.5025641 81.5589744,74.5025641 C81.5589744,74.5025641 85.4974359,80.4102564 62.3589744,87.3025641 C47.425641,91.4051282 27.2410256,88.7794872 27.2410256,88.7794872 L33.1487179,103.220513 C33.1487179,103.220513 59.5692308,106.338462 83.8564103,97.6410256 C83.8564103,97.6410256 117.989744,87.3025641 111.589744,65.6410256 C106.666667,50.8717949 85.9897436,50.7076923 70.2358974,52.0205128 C70.2358974,52.0205128 46.9333333,55.1384615 46.6051282,47.425641 C46.4410256,38.2358974 72.5333333,32.9846154 99.2820513,34.625641 Z" id="路径" fill="#FFFFFF"></path>
        </g>
    </g>
</svg>