<?xml version="1.0" encoding="utf-8"?>
<!-- Generator: Adobe Illustrator 16.0.0, SVG Export Plug-In . SVG Version: 6.00 Build 0)  -->
<!DOCTYPE svg PUBLIC "-//W3C//DTD SVG 1.1//EN" "http://www.w3.org/Graphics/SVG/1.1/DTD/svg11.dtd">
<svg version="1.1" id="图层_1" xmlns="http://www.w3.org/2000/svg" xmlns:xlink="http://www.w3.org/1999/xlink" x="0px" y="0px"
	 width="150px" height="63px" viewBox="0 0 150 63" enable-background="new 0 0 150 63" xml:space="preserve">
<rect fill="#EFF2F6" width="150" height="63"/>
<g>
	<g>
		<path d="M51.964,30.539c0,4.427-0.911,7.767-2.734,10.02c-0.3-0.456-0.625-0.893-0.977-1.309c1.589-1.823,2.376-4.818,2.363-8.984
			v-8.145h16.074v4.16h-1.328v-0.391H51.964V30.539z M65.363,24.758v-1.504H51.964v1.504H65.363z M53.898,29.348h5.254v-1.23
			c-1.875,0.064-3.945,0.13-6.211,0.195c-0.065-0.352-0.156-0.742-0.273-1.172c6.198-0.144,10.755-0.3,13.672-0.469l0.313,1.133
			c-1.692,0.091-3.77,0.182-6.23,0.273v1.27h5.352v3.945h-1.289v-0.391h-4.063v1.25h6.582v4.238c0,1.328-0.657,1.992-1.973,1.992
			c-0.651,0-1.465-0.014-2.441-0.039c-0.065-0.365-0.163-0.814-0.293-1.348c0.911,0.078,1.687,0.117,2.324,0.117
			c0.703,0,1.055-0.332,1.055-0.996v-2.91h-5.254v1.738c0.755-0.039,1.504-0.085,2.246-0.137c-0.144-0.3-0.293-0.6-0.449-0.898
			l1.055-0.488c0.469,0.846,0.938,1.758,1.406,2.734l-1.152,0.527c-0.117-0.273-0.234-0.541-0.352-0.801
			c-2.188,0.091-4.636,0.267-7.344,0.527l-0.234-1.25c1.198-0.039,2.383-0.092,3.555-0.156v-1.797h-4.844v5.273H52.98v-6.328h6.172
			v-1.25h-3.965v0.391h-1.289V29.348z M55.187,31.848h3.965v-1.445h-3.965V31.848z M64.484,30.402h-4.063v1.445h4.063V30.402z"/>
		<path d="M69.328,25.695l1.289,0.293c-0.234,1.575-0.56,3.248-0.977,5.02c-0.352-0.131-0.801-0.254-1.348-0.371
			C68.683,29.217,69.028,27.57,69.328,25.695z M71.144,21.281h1.504v3.75l0.84-0.469c0.677,1.055,1.257,2.044,1.738,2.969
			l-1.211,0.781c-0.456-0.964-0.911-1.816-1.367-2.559v14.785h-1.504V21.281z M74.191,38.293h6.328v-5.234H75.48v-1.367h5.039
			v-4.727h-3.164c-0.481,1.236-1.042,2.467-1.679,3.691c-0.56-0.456-0.996-0.756-1.309-0.898c1.302-2.357,2.213-4.766,2.734-7.227
			l1.543,0.41c-0.222,0.898-0.481,1.783-0.781,2.656h2.656v-4.297h1.543v4.297h5.137v1.367h-5.137v4.727h4.746v1.367h-4.746v5.234
			h5.742v1.367H74.191V38.293z"/>
		<path d="M95.089,34.602c0.026,0.611,0.071,1.191,0.137,1.738c-1.784,1.158-3.112,2.09-3.984,2.793l-0.938-1.289
			c0.442-0.43,0.664-1.016,0.664-1.758v-6.953h-2.48v-1.406h3.965v8.672C93.299,35.838,94.178,35.239,95.089,34.602z M91.144,21.789
			c1.003,0.989,1.96,1.992,2.871,3.008l-1.367,1.133c-0.95-1.225-1.843-2.266-2.676-3.125L91.144,21.789z M95.03,31.203v-1.348
			h10.645v1.348c-1.028,2.259-2.298,4.029-3.809,5.313c1.66,1.094,3.659,1.855,5.996,2.285c-0.456,0.586-0.853,1.113-1.191,1.582
			c-2.324-0.671-4.349-1.645-6.074-2.92c-1.771,1.197-4.011,2.223-6.719,3.076c-0.339-0.482-0.677-0.951-1.016-1.406
			c2.585-0.697,4.746-1.586,6.484-2.666c-1.511-1.459-2.607-3.213-3.291-5.264H95.03z M103.233,23.586h-4.883v0.566
			c0,2.396-1.094,4.18-3.281,5.352c-0.352-0.43-0.729-0.834-1.133-1.211c1.927-0.99,2.891-2.357,2.891-4.102v-2.051h7.93v3.984
			c0,0.586,0.3,0.879,0.898,0.879h2.148c-0.065,0.533-0.117,1.016-0.156,1.445h-2.578c-1.224,0-1.836-0.678-1.836-2.031V23.586z
			 M97.53,31.203c0.657,1.66,1.689,3.121,3.096,4.385c1.38-1.068,2.483-2.529,3.311-4.385H97.53z"/>
		<path d="M108.351,38.703h2.91V29.66h5.977v-1.27h-8.418v-1.094h8.418v-1.035h1.406v1.035h8.633v1.094h-8.633v1.27h6.387v9.043
			h2.695v1.133h-19.375V38.703z M110.05,22.082h15.996v4.355h-1.328v-0.449h-13.32v0.449h-1.348V22.082z M111.397,24.934h3.574
			v-1.797h-3.574V24.934z M123.663,30.715h-11.035v1.23h11.035V30.715z M112.628,34.191h11.035v-1.23h-11.035V34.191z
			 M112.628,36.438h11.035v-1.23h-11.035V36.438z M112.628,38.703h11.035v-1.25h-11.035V38.703z M116.261,24.934h3.574v-1.797
			h-3.574V24.934z M124.718,23.137h-3.594v1.797h3.594V23.137z"/>
	</g>
	<g>
		
			<linearGradient id="SVGID_1_" gradientUnits="userSpaceOnUse" x1="378.2148" y1="-239.2813" x2="378.2148" y2="-259.166" gradientTransform="matrix(1 0 0 -1 -345.96 -217.1602)">
			<stop  offset="0" style="stop-color:#FB7544"/>
			<stop  offset="1" style="stop-color:#EF4823"/>
		</linearGradient>
		<path fill="url(#SVGID_1_)" d="M42.017,34.535c0.9,2.301-1.2,3.4-1.899,3.9c-0.7,0.5-4.5,2.5-11.101,3.199
			c-2.8,0.4-3.2-0.699-3.5-1.799l-3.2-12.401c-0.199-1,0.301-2.101,1.4-2.3c6.5-1.4,10.8-2.5,12.4-2.9c1.5-0.4,2,0.301,2.3,1.4
			L42.017,34.535z"/>
		<g>
			<path fill="#E44125" d="M37.717,28.036l-0.9-2.201c0,0-4.899-0.199-8.699,1.4c-3.801,1.6-3.801,4-3.4,5
				c0.5,1.102,1.4,2.301,7.2,1.602c2.7-0.4,2.899,0.5,2.899,0.5s0.601,0.898-3,2c-2.399,0.6-5.5,0.199-5.5,0.199l0.9,2.301
				c0,0,4.1,0.5,7.9-0.9c0,0,5.3-1.6,4.3-5c-0.8-2.3-4-2.3-6.5-2.101c0,0-3.7,0.5-3.7-0.699
				C29.417,28.536,33.517,27.735,37.717,28.036z"/>
		</g>
		<g>
			<path fill="#FFFFFF" d="M37.717,27.635l-0.9-2.2c0,0-4.899-0.2-8.699,1.399c-3.801,1.601-3.801,4-3.4,5
				c0.5,1.101,1.4,2.3,7.2,1.601c2.7-0.4,2.899,0.5,2.899,0.5s0.601,0.9-3,2c-2.399,0.6-5.5,0.199-5.5,0.199l0.9,2.301
				c0,0,4.1,0.5,7.9-0.9c0,0,5.3-1.6,4.3-5c-0.8-2.3-4-2.3-6.5-2.1c0,0-3.7,0.5-3.7-0.7C29.517,28.135,33.517,27.334,37.717,27.635z
				"/>
		</g>
	</g>
</g>
</svg>
