<?xml version="1.0" encoding="UTF-8"?>
<svg width="240px" height="235px" viewBox="0 0 240 235" version="1.1" xmlns="http://www.w3.org/2000/svg" xmlns:xlink="http://www.w3.org/1999/xlink">
    <title>256</title>
    <defs>
        <path d="M174.928,5.776 C172.464,5.824 169.68,6.208 166.528,6.96 L166.528,6.96 C147.712,11.584 96.24,25.152 17.616,41.504 L17.616,41.504 C6.352,44.048 0.176,52.992 0,63.008 L0,63.008 L0,63.872 C0.032,65.648 0.24,67.44 0.64,69.248 L0.64,69.248 L39.2,217.872 C42.576,230.816 47.216,243.456 81.136,239.136 L81.136,239.136 C160.352,230.512 205.696,205.824 214.64,200.288 L214.64,200.288 C221.776,195.44 239.872,185.968 240,166.976 L240,166.976 L240,166.624 C239.984,162.736 239.216,158.448 237.456,153.728 L237.456,153.728 L194.592,23.92 C191.392,13.104 186.816,6 176.016,5.776 L176.016,5.776 L174.928,5.776 Z" id="path-1"></path>
        <linearGradient x1="50%" y1="-0.242936623%" x2="50%" y2="101.505139%" id="linearGradient-3">
            <stop stop-color="#ED7246" offset="0%"></stop>
            <stop stop-color="#E24926" offset="100%"></stop>
        </linearGradient>
    </defs>
    <g id="页面-1" stroke="none" stroke-width="1" fill="none" fill-rule="evenodd">
        <g id="lgoo备份-7" transform="translate(-8.000000, -11.000000)">
            <rect id="矩形" x="0" y="0" width="256" height="256"></rect>
            <g id="编组-2" transform="translate(8.000000, 5.435200)">
                <g id="编组">
                    <mask id="mask-2" fill="white">
                        <use xlink:href="#path-1"></use>
                    </mask>
                    <g id="Clip-2"></g>
                    <path d="M174.928,5.776 C172.464,5.824 169.68,6.208 166.528,6.96 L166.528,6.96 C147.712,11.584 96.24,25.152 17.616,41.504 L17.616,41.504 C6.352,44.048 0.176,52.992 0,63.008 L0,63.008 L0,63.872 C0.032,65.648 0.24,67.44 0.64,69.248 L0.64,69.248 L39.2,217.872 C42.576,230.816 47.216,243.456 81.136,239.136 L81.136,239.136 C160.352,230.512 205.696,205.824 214.64,200.288 L214.64,200.288 C221.776,195.44 239.872,185.968 240,166.976 L240,166.976 L240,166.624 C239.984,162.736 239.216,158.448 237.456,153.728 L237.456,153.728 L194.592,23.92 C191.392,13.104 186.816,6 176.016,5.776 L176.016,5.776 L174.928,5.776 Z" id="Fill-1" fill="url(#linearGradient-3)" mask="url(#mask-2)"></path>
                </g>
                <g id="编组" transform="translate(16.000000, 32.000000)">
                    <path d="M170.2656,44.0304 L159.7856,17.8224 C159.7856,17.8224 101.5136,15.3584 55.8816,34.1584 C9.9296,52.6704 10.2496,82.2704 15.1776,94.2864 C20.7296,107.5504 32.7456,121.4224 101.8176,113.1024 C134.1856,108.4784 136.9696,118.6544 136.9696,118.6544 C136.9696,118.6544 144.3616,129.7424 100.8896,142.7024 C72.8416,150.3984 34.9056,145.4704 34.9056,145.4704 L46.0096,172.6064 C46.0096,172.6064 95.6416,178.4624 141.2736,162.1104 C141.2736,162.1104 205.4176,142.7024 193.3856,101.9984 C183.8336,74.2544 145.2896,73.6304 115.3856,76.3984 C115.3856,76.3984 71.5936,82.2704 70.9856,67.7744 C70.9856,50.8144 119.7056,40.9424 170.2656,44.0304" id="Fill-3" fill="#D74328"></path>
                    <path d="M170.2656,38.7888 L159.7856,12.5808 C159.7856,12.5808 101.5136,10.1168 55.8816,28.9168 C9.9296,47.7328 10.2496,77.0288 15.1776,89.0448 C20.7296,102.3088 32.7456,116.1808 101.8176,107.8448 C134.1856,103.5408 136.9696,113.7168 136.9696,113.7168 C136.9696,113.7168 144.3616,124.8208 100.8896,137.7648 C72.8416,145.4768 34.9056,140.5328 34.9056,140.5328 L46.0096,167.6848 C46.0096,167.6848 95.6416,173.5248 141.2736,157.1888 C141.2736,157.1888 205.4176,137.7648 193.3856,97.0608 C184.1376,69.3168 145.2896,69.0128 115.6896,71.4768 C115.6896,71.4768 71.9136,77.3328 71.2896,62.8368 C70.9856,45.5728 120.0096,35.7008 170.2656,38.7888" id="Fill-5" fill="#FFFFFF"></path>
                </g>
            </g>
        </g>
    </g>
</svg>