<?xml version="1.0" encoding="UTF-8"?>
<svg width="18px" height="18px" viewBox="0 0 18 18" version="1.1" xmlns="http://www.w3.org/2000/svg" xmlns:xlink="http://www.w3.org/1999/xlink">
    <title>appearance-4</title>
    <g id="appearance-4" stroke="none" stroke-width="1" fill="none" fill-rule="evenodd">
        <path d="M7,1 C7,2.1045695 7.8954305,3 9,3 C10.1045695,3 11,2.1045695 11,1 L13,1 L13,1.001 L17,4.99964069 L13.999,8 L14,8 L14,16 L4,16 L4,8 L1,4.99964069 L5,1 L7,1 Z M12.6178131,2 L11.8289758,2.00090072 C11.4168852,3.16562257 10.3058822,4 9,4 C7.69411778,4 6.58311485,3.16562257 6.17102423,2.00090072 L5.38218689,2 L5,2.40666199 L5,2.412 L2.41421356,4.99873462 L5,7.585 L5,15 L13,15 L13,8.999 L13,9 L13,7.585 L15.5857864,4.99873462 L13,2.412 L13,2.40666199 L12.6178131,2 Z M9,-2 C10.3062521,-2 11.4175144,-1.1651499 11.8293257,8.89252946e-05 L10.7323937,-7.24809819e-05 C10.3865739,-0.59783388 9.74025244,-1 9,-1 C8.25974756,-1 7.61342606,-0.59783388 7.26760632,-7.24809819e-05 L6.17067428,8.89252946e-05 C6.58248558,-1.1651499 7.69374794,-2 9,-2 Z" id="形状结合备份-2" fill="#FFFFFF"></path>
    </g>
</svg>