<?xml version="1.0" encoding="UTF-8"?>
<svg width="480px" height="469px" viewBox="0 0 480 469" version="1.1" xmlns="http://www.w3.org/2000/svg" xmlns:xlink="http://www.w3.org/1999/xlink">
    <title>512</title>
    <defs>
        <path d="M349.856,11.552 C344.928,11.648 339.36,12.416 333.056,13.92 L333.056,13.92 C295.424,23.168 192.48,50.304 35.232,83.008 L35.232,83.008 C12.704,88.096 0.352,105.984 0,126.016 L0,126.016 L0,127.744 C0.064,131.296 0.48,134.88 1.28,138.496 L1.28,138.496 L78.4,435.744 C85.152,461.632 94.432,486.912 162.272,478.272 L162.272,478.272 C320.704,461.024 411.392,411.648 429.28,400.576 L429.28,400.576 C443.552,390.88 479.744,371.936 480,333.952 L480,333.952 L480,333.248 C479.968,325.472 478.432,316.896 474.912,307.456 L474.912,307.456 L389.184,47.84 C382.784,26.208 373.632,12 352.032,11.552 L352.032,11.552 L349.856,11.552 Z" id="path-1"></path>
        <linearGradient x1="50%" y1="-0.242936623%" x2="50%" y2="101.505139%" id="linearGradient-3">
            <stop stop-color="#ED7246" offset="0%"></stop>
            <stop stop-color="#E24926" offset="100%"></stop>
        </linearGradient>
    </defs>
    <g id="页面-1" stroke="none" stroke-width="1" fill="none" fill-rule="evenodd">
        <g id="lgoo备份-8" transform="translate(-16.000000, -22.000000)">
            <rect id="矩形" x="0" y="0" width="512" height="512"></rect>
            <g id="编组-2" transform="translate(16.000000, 10.870400)">
                <g id="编组">
                    <mask id="mask-2" fill="white">
                        <use xlink:href="#path-1"></use>
                    </mask>
                    <g id="Clip-2"></g>
                    <path d="M349.856,11.552 C344.928,11.648 339.36,12.416 333.056,13.92 L333.056,13.92 C295.424,23.168 192.48,50.304 35.232,83.008 L35.232,83.008 C12.704,88.096 0.352,105.984 0,126.016 L0,126.016 L0,127.744 C0.064,131.296 0.48,134.88 1.28,138.496 L1.28,138.496 L78.4,435.744 C85.152,461.632 94.432,486.912 162.272,478.272 L162.272,478.272 C320.704,461.024 411.392,411.648 429.28,400.576 L429.28,400.576 C443.552,390.88 479.744,371.936 480,333.952 L480,333.952 L480,333.248 C479.968,325.472 478.432,316.896 474.912,307.456 L474.912,307.456 L389.184,47.84 C382.784,26.208 373.632,12 352.032,11.552 L352.032,11.552 L349.856,11.552 Z" id="Fill-1" fill="url(#linearGradient-3)" mask="url(#mask-2)"></path>
                </g>
                <g id="编组" transform="translate(32.000000, 64.000000)">
                    <path d="M340.5312,88.0608 L319.5712,35.6448 C319.5712,35.6448 203.0272,30.7168 111.7632,68.3168 C19.8592,105.3408 20.4992,164.5408 30.3552,188.5728 C41.4592,215.1008 65.4912,242.8448 203.6352,226.2048 C268.3712,216.9568 273.9392,237.3088 273.9392,237.3088 C273.9392,237.3088 288.7232,259.4848 201.7792,285.4048 C145.6832,300.7968 69.8112,290.9408 69.8112,290.9408 L92.0192,345.2128 C92.0192,345.2128 191.2832,356.9248 282.5472,324.2208 C282.5472,324.2208 410.8352,285.4048 386.7712,203.9968 C367.6672,148.5088 290.5792,147.2608 230.7712,152.7968 C230.7712,152.7968 143.1872,164.5408 141.9712,135.5488 C141.9712,101.6288 239.4112,81.8848 340.5312,88.0608" id="Fill-3" fill="#D74328"></path>
                    <path d="M340.5312,77.5776 L319.5712,25.1616 C319.5712,25.1616 203.0272,20.2336 111.7632,57.8336 C19.8592,95.4656 20.4992,154.0576 30.3552,178.0896 C41.4592,204.6176 65.4912,232.3616 203.6352,215.6896 C268.3712,207.0816 273.9392,227.4336 273.9392,227.4336 C273.9392,227.4336 288.7232,249.6416 201.7792,275.5296 C145.6832,290.9536 69.8112,281.0656 69.8112,281.0656 L92.0192,335.3696 C92.0192,335.3696 191.2832,347.0496 282.5472,314.3776 C282.5472,314.3776 410.8352,275.5296 386.7712,194.1216 C368.2752,138.6336 290.5792,138.0256 231.3792,142.9536 C231.3792,142.9536 143.8272,154.6656 142.5792,125.6736 C141.9712,91.1456 240.0192,71.4016 340.5312,77.5776" id="Fill-5" fill="#FFFFFF"></path>
                </g>
            </g>
        </g>
    </g>
</svg>