<?xml version="1.0" encoding="utf-8"?>
<!-- Generator: Adobe Illustrator 23.0.1, SVG Export Plug-In . SVG Version: 6.00 Build 0)  -->
<svg version="1.1" id="图层_1" xmlns="http://www.w3.org/2000/svg" xmlns:xlink="http://www.w3.org/1999/xlink" x="0px" y="0px"
	 viewBox="0 0 22 22" style="enable-background:new 0 0 22 22;" xml:space="preserve">
<style type="text/css">
	.st0{fill:url(#SVGID_1_);}
	.st1{fill:#E44125;}
	.st2{fill:#FFFFFF;}
</style>
<g>
	
		<linearGradient id="SVGID_1_" gradientUnits="userSpaceOnUse" x1="11.0387" y1="22.8137" x2="11.0387" y2="2.9284" gradientTransform="matrix(1 0 0 -1 0 24)">
		<stop  offset="0" style="stop-color:#FB7544"/>
		<stop  offset="1" style="stop-color:#EF4823"/>
	</linearGradient>
	<path class="st0" d="M20.8,13.6c0.9,2.3-1.2,3.4-1.9,3.9S14.4,20,7.8,20.7C5,21.1,4.6,20,4.3,18.9L1.1,6.5c-0.2-1,0.3-2.1,1.4-2.3
		C9,2.8,13.3,1.7,14.9,1.3c1.5-0.4,2,0.3,2.3,1.4L20.8,13.6z"/>
	<g>
		<path class="st1" d="M16.7,7.1l-0.9-2.2c0,0-4.9-0.2-8.7,1.4s-3.8,4-3.4,5c0.5,1.1,1.4,2.3,7.2,1.6c2.7-0.4,2.9,0.5,2.9,0.5
			s0.6,0.9-3,2c-2.4,0.6-5.5,0.2-5.5,0.2l0.9,2.3c0,0,4.1,0.5,7.9-0.9c0,0,5.3-1.6,4.3-5c-0.8-2.3-4-2.3-6.5-2.1
			c0,0-3.7,0.5-3.7-0.7C8.4,7.6,12.5,6.8,16.7,7.1z"/>
	</g>
	<g>
		<path class="st2" d="M16.7,6.7l-0.9-2.2c0,0-4.9-0.2-8.7,1.4s-3.8,4-3.4,5c0.5,1.1,1.4,2.3,7.2,1.6c2.7-0.4,2.9,0.5,2.9,0.5
			s0.6,0.9-3,2c-2.4,0.6-5.5,0.2-5.5,0.2l0.9,2.3c0,0,4.1,0.5,7.9-0.9c0,0,5.3-1.6,4.3-5c-0.8-2.3-4-2.3-6.5-2.1
			c0,0-3.7,0.5-3.7-0.7C8.5,7.2,12.5,6.4,16.7,6.7z"/>
	</g>
</g>
</svg>
